<?xml version="1.0" encoding="utf-8"?>
<!-- Generator: Adobe Illustrator 17.0.0, SVG Export Plug-In . SVG Version: 6.00 Build 0)  -->
<!DOCTYPE svg PUBLIC "-//W3C//DTD SVG 1.1//EN" "http://www.w3.org/Graphics/SVG/1.1/DTD/svg11.dtd">
<svg version="1.1" id="Layer_1" xmlns="http://www.w3.org/2000/svg" xmlns:xlink="http://www.w3.org/1999/xlink" x="0px" y="0px"
	 width="615.523px" height="122.484px" viewBox="79.954 241.232 615.523 122.484"
	 enable-background="new 79.954 241.232 615.523 122.484" xml:space="preserve">
<polygon fill="#FAC917" points="141.866,252.047 158.62,285.997 196.088,291.441 168.977,317.867 175.375,355.182 141.866,337.565 
	108.355,355.182 114.756,317.867 87.645,291.441 125.111,285.997 "/>
<polygon fill="#FAC917" points="266.714,252.047 283.467,285.997 320.935,291.441 293.825,317.867 300.223,355.182 266.714,337.565 
	233.203,355.182 239.603,317.867 212.492,291.441 249.958,285.997 "/>
<polygon fill="#FAC917" points="391.561,252.047 408.314,285.997 445.783,291.441 418.672,317.867 425.07,355.182 391.561,337.565 
	358.05,355.182 364.45,317.867 337.34,291.441 374.806,285.997 "/>
<polygon fill="#FAC917" points="516.408,252.047 533.162,285.997 570.63,291.441 543.519,317.867 549.917,355.182 516.408,337.565 
	482.897,355.182 489.298,317.867 462.187,291.441 499.653,285.997 "/>
<polygon fill="#FAC917" points="641.256,252.047 658.009,285.997 695.477,291.441 668.367,317.867 674.765,355.182 641.256,337.565 
	607.745,355.182 614.145,317.867 587.034,291.441 624.5,285.997 "/>
</svg>
